<?xml version="1.0" encoding="UTF-8" standalone="no"?>
<!DOCTYPE svg PUBLIC "-//W3C//DTD SVG 1.1//EN"
 "http://www.w3.org/Graphics/SVG/1.1/DTD/svg11.dtd">
<!-- Generated by graphviz version 2.30.1 (20130214.1330)
 -->
<!-- Title: all Pages: 1 -->
<svg width="1568pt" height="1206pt"
 viewBox="0.00 0.00 1568.00 1206.00" xmlns="http://www.w3.org/2000/svg" xmlns:xlink="http://www.w3.org/1999/xlink">
<g id="graph0" class="graph" transform="scale(1 1) rotate(0) translate(4 1202)">
<title>all</title>
<polygon fill="white" stroke="white" points="-4,5 -4,-1202 1565,-1202 1565,5 -4,5"/>
<!-- Node1 -->
<g id="node1" class="node"><title>Node1</title>
<g id="a_node1"><a xlink:href="class_cyg___alarm.html#a5fc26af76b09d9ca69afaaf894979fd9" xlink:title="Cyg_Alarm::enable">
<polygon fill="#bfbfbf" stroke="black" points="799.5,-798.5 799.5,-817.5 898.5,-817.5 898.5,-798.5 799.5,-798.5"/>
<text text-anchor="middle" x="849" y="-805.5" font-family="Helvetica,sans-Serif" font-size="10.00">Cyg_Alarm::enable</text>
</a>
</g>
</g>
<!-- Node2 -->
<g id="node2" class="node"><title>Node2</title>
<g id="a_node2"><a xlink:href="class_cyg___counter.html#a964f56902eff1382331ab0757e13857e" xlink:title="Cyg_Counter::add_alarm">
<polygon fill="white" stroke="black" points="1012,-760.5 1012,-779.5 1136,-779.5 1136,-760.5 1012,-760.5"/>
<text text-anchor="middle" x="1074" y="-767.5" font-family="Helvetica,sans-Serif" font-size="10.00">Cyg_Counter::add_alarm</text>
</a>
</g>
</g>
<!-- Node1&#45;&gt;Node2 -->
<g id="edge1" class="edge"><title>Node1&#45;&gt;Node2</title>
<path fill="none" stroke="midnightblue" d="M898.663,-799.708C930.389,-794.301 972.193,-787.178 1006.91,-781.262"/>
<polygon fill="midnightblue" stroke="midnightblue" points="1007.7,-784.678 1016.97,-779.548 1006.52,-777.777 1007.7,-784.678"/>
</g>
<!-- Node3 -->
<g id="node3" class="node"><title>Node3</title>
<g id="a_node3"><a xlink:href="class_cyg___alarm.html#a5213ebb268f9a6777da34849ad1e8116" xlink:title="Cyg_Alarm::synchronize">
<polygon fill="white" stroke="black" points="1224.5,-798.5 1224.5,-817.5 1347.5,-817.5 1347.5,-798.5 1224.5,-798.5"/>
<text text-anchor="middle" x="1286" y="-805.5" font-family="Helvetica,sans-Serif" font-size="10.00">Cyg_Alarm::synchronize</text>
</a>
</g>
</g>
<!-- Node1&#45;&gt;Node3 -->
<g id="edge5" class="edge"><title>Node1&#45;&gt;Node3</title>
<path fill="none" stroke="midnightblue" d="M898.634,-808C975.407,-808 1125.07,-808 1213.91,-808"/>
<polygon fill="midnightblue" stroke="midnightblue" points="1214.16,-811.5 1224.16,-808 1214.16,-804.5 1214.16,-811.5"/>
</g>
<!-- Node11 -->
<g id="node6" class="node"><title>Node11</title>
<g id="a_node6"><a xlink:href="class_cyg___scheduler.html#a362916327f3b75af4b104272f6c9e466" xlink:title="Cyg_Scheduler::unlock">
<polygon fill="white" stroke="black" points="1015.5,-380.5 1015.5,-399.5 1132.5,-399.5 1132.5,-380.5 1015.5,-380.5"/>
<text text-anchor="middle" x="1074" y="-387.5" font-family="Helvetica,sans-Serif" font-size="10.00">Cyg_Scheduler::unlock</text>
</a>
</g>
</g>
<!-- Node1&#45;&gt;Node11 -->
<g id="edge6" class="edge"><title>Node1&#45;&gt;Node11</title>
<path fill="none" stroke="midnightblue" d="M898.746,-806.461C911.732,-803.732 924.714,-798.532 934,-789 991.235,-730.251 944.288,-685.886 970,-608 995.428,-530.974 1041.38,-445.648 1062.21,-408.722"/>
<polygon fill="midnightblue" stroke="midnightblue" points="1065.48,-410.06 1067.38,-399.638 1059.39,-406.597 1065.48,-410.06"/>
</g>
<!-- Node2&#45;&gt;Node3 -->
<g id="edge2" class="edge"><title>Node2&#45;&gt;Node3</title>
<path fill="none" stroke="midnightblue" d="M1127.72,-779.54C1156.43,-784.735 1192.14,-791.196 1222.27,-796.649"/>
<polygon fill="midnightblue" stroke="midnightblue" points="1221.79,-800.12 1232.26,-798.456 1223.04,-793.231 1221.79,-800.12"/>
</g>
<!-- Node7 -->
<g id="node4" class="node"><title>Node7</title>
<g id="a_node4"><a xlink:href="class_cyg___c_list.html#a8a0ed64f53e1079b44d8156f8186c144" xlink:title="Cyg_CList::insert">
<polygon fill="white" stroke="black" points="1240,-760.5 1240,-779.5 1332,-779.5 1332,-760.5 1240,-760.5"/>
<text text-anchor="middle" x="1286" y="-767.5" font-family="Helvetica,sans-Serif" font-size="10.00">Cyg_CList::insert</text>
</a>
</g>
</g>
<!-- Node2&#45;&gt;Node7 -->
<g id="edge3" class="edge"><title>Node2&#45;&gt;Node7</title>
<path fill="none" stroke="midnightblue" d="M1136.02,-770C1165.57,-770 1200.8,-770 1229.58,-770"/>
<polygon fill="midnightblue" stroke="midnightblue" points="1229.86,-773.5 1239.86,-770 1229.86,-766.5 1229.86,-773.5"/>
</g>
<!-- Node9 -->
<g id="node5" class="node"><title>Node9</title>
<g id="a_node5"><a xlink:href="class_cyg___c_list.html#a5b78ee573df448e713d5547f35853c8b" xlink:title="Cyg_CList::add_tail">
<polygon fill="white" stroke="black" points="1235.5,-722.5 1235.5,-741.5 1336.5,-741.5 1336.5,-722.5 1235.5,-722.5"/>
<text text-anchor="middle" x="1286" y="-729.5" font-family="Helvetica,sans-Serif" font-size="10.00">Cyg_CList::add_tail</text>
</a>
</g>
</g>
<!-- Node2&#45;&gt;Node9 -->
<g id="edge4" class="edge"><title>Node2&#45;&gt;Node9</title>
<path fill="none" stroke="midnightblue" d="M1127.72,-760.46C1157.3,-755.107 1194.32,-748.409 1225,-742.856"/>
<polygon fill="midnightblue" stroke="midnightblue" points="1225.93,-746.245 1235.15,-741.021 1224.69,-739.357 1225.93,-746.245"/>
</g>
<!-- Node12 -->
<g id="node7" class="node"><title>Node12</title>
<g id="a_node7"><a xlink:href="class_cyg___scheduler.html#a529555a4995ebd4ddab69edd0d4f766f" xlink:title="Cyg_Scheduler::unlock_inner">
<polygon fill="white" stroke="black" points="1214.5,-456.5 1214.5,-475.5 1357.5,-475.5 1357.5,-456.5 1214.5,-456.5"/>
<text text-anchor="middle" x="1286" y="-463.5" font-family="Helvetica,sans-Serif" font-size="10.00">Cyg_Scheduler::unlock_inner</text>
</a>
</g>
</g>
<!-- Node11&#45;&gt;Node12 -->
<g id="edge7" class="edge"><title>Node11&#45;&gt;Node12</title>
<path fill="none" stroke="midnightblue" d="M1101.6,-399.625C1138.99,-413.159 1207.22,-437.85 1249.09,-453.003"/>
<polygon fill="midnightblue" stroke="midnightblue" points="1248.03,-456.341 1258.62,-456.453 1250.41,-449.758 1248.03,-456.341"/>
</g>
<!-- Node14 -->
<g id="node8" class="node"><title>Node14</title>
<g id="a_node8"><a xlink:href="class_cyg___interrupt.html#a094419e490ef551de2675081f96352d8" xlink:title="Cyg_Interrupt::call_pending_DSRs">
<polygon fill="white" stroke="black" points="1394.5,-456.5 1394.5,-475.5 1559.5,-475.5 1559.5,-456.5 1394.5,-456.5"/>
<text text-anchor="middle" x="1477" y="-463.5" font-family="Helvetica,sans-Serif" font-size="10.00">Cyg_Interrupt::call_pending_DSRs</text>
</a>
</g>
</g>
<!-- Node12&#45;&gt;Node14 -->
<g id="edge8" class="edge"><title>Node12&#45;&gt;Node14</title>
<path fill="none" stroke="midnightblue" d="M1357.65,-466C1366.33,-466 1375.3,-466 1384.24,-466"/>
<polygon fill="midnightblue" stroke="midnightblue" points="1384.3,-469.5 1394.3,-466 1384.3,-462.5 1384.3,-469.5"/>
</g>
<!-- Node23 -->
<g id="node9" class="node"><title>Node23</title>
<g id="a_node9"><a xlink:href="class_cyg___alarm.html#a66e9e842221f3212bff7a306a21b9deb" xlink:title="Cyg_Alarm::~Cyg_Alarm">
<polygon fill="#bfbfbf" stroke="black" points="552.5,-608.5 552.5,-627.5 677.5,-627.5 677.5,-608.5 552.5,-608.5"/>
<text text-anchor="middle" x="615" y="-615.5" font-family="Helvetica,sans-Serif" font-size="10.00">Cyg_Alarm::~Cyg_Alarm</text>
</a>
</g>
</g>
<!-- Node24 -->
<g id="node10" class="node"><title>Node24</title>
<g id="a_node10"><a xlink:href="class_cyg___alarm.html#a72222d58531e082f7de0007f28b604f1" xlink:title="Cyg_Alarm::disable">
<polygon fill="white" stroke="black" points="798.5,-570.5 798.5,-589.5 899.5,-589.5 899.5,-570.5 798.5,-570.5"/>
<text text-anchor="middle" x="849" y="-577.5" font-family="Helvetica,sans-Serif" font-size="10.00">Cyg_Alarm::disable</text>
</a>
</g>
</g>
<!-- Node23&#45;&gt;Node24 -->
<g id="edge9" class="edge"><title>Node23&#45;&gt;Node24</title>
<path fill="none" stroke="midnightblue" d="M674.244,-608.46C709.061,-602.757 753.198,-595.528 788.275,-589.783"/>
<polygon fill="midnightblue" stroke="midnightblue" points="789.077,-593.198 798.38,-588.127 787.945,-586.29 789.077,-593.198"/>
</g>
<!-- Node25 -->
<g id="node11" class="node"><title>Node25</title>
<g id="a_node11"><a xlink:href="class_cyg___counter.html#a9964e8a95295d66c7f83cd8e5fbdeb3c" xlink:title="Cyg_Counter::rem_alarm">
<polygon fill="white" stroke="black" points="1011.5,-617.5 1011.5,-636.5 1136.5,-636.5 1136.5,-617.5 1011.5,-617.5"/>
<text text-anchor="middle" x="1074" y="-624.5" font-family="Helvetica,sans-Serif" font-size="10.00">Cyg_Counter::rem_alarm</text>
</a>
</g>
</g>
<!-- Node24&#45;&gt;Node25 -->
<g id="edge10" class="edge"><title>Node24&#45;&gt;Node25</title>
<path fill="none" stroke="midnightblue" d="M895.127,-589.511C930.526,-596.972 979.958,-607.39 1017.73,-615.351"/>
<polygon fill="midnightblue" stroke="midnightblue" points="1017.05,-618.785 1027.56,-617.422 1018.49,-611.935 1017.05,-618.785"/>
</g>
<!-- Node24&#45;&gt;Node11 -->
<g id="edge11" class="edge"><title>Node24&#45;&gt;Node11</title>
<path fill="none" stroke="midnightblue" d="M865.723,-570.443C883.026,-559.675 911.384,-541.28 934,-523 981.551,-484.566 1032.17,-433.089 1057.16,-406.877"/>
<polygon fill="midnightblue" stroke="midnightblue" points="1059.72,-409.262 1064.06,-399.596 1054.64,-404.447 1059.72,-409.262"/>
</g>
<!-- Node27 -->
<g id="node12" class="node"><title>Node27</title>
<g id="a_node12"><a xlink:href="class_cyg___alarm.html#a67224148d954ded549b8e85a97c0379d" xlink:title="Cyg_Alarm::get_times">
<polygon fill="#bfbfbf" stroke="black" points="792.5,-418.5 792.5,-437.5 905.5,-437.5 905.5,-418.5 792.5,-418.5"/>
<text text-anchor="middle" x="849" y="-425.5" font-family="Helvetica,sans-Serif" font-size="10.00">Cyg_Alarm::get_times</text>
</a>
</g>
</g>
<!-- Node27&#45;&gt;Node11 -->
<g id="edge12" class="edge"><title>Node27&#45;&gt;Node11</title>
<path fill="none" stroke="midnightblue" d="M905.697,-418.509C936.429,-413.272 974.781,-406.737 1007.01,-401.245"/>
<polygon fill="midnightblue" stroke="midnightblue" points="1007.97,-404.632 1017.24,-399.502 1006.79,-397.731 1007.97,-404.632"/>
</g>
<!-- Node28 -->
<g id="node13" class="node"><title>Node28</title>
<g id="a_node13"><a xlink:href="class_cyg___thread.html#ae26681ed39ae0e34088fd925be8f3484" xlink:title="Cyg_Thread::counted_sleep">
<polygon fill="#bfbfbf" stroke="black" points="36.5,-513.5 36.5,-532.5 173.5,-532.5 173.5,-513.5 36.5,-513.5"/>
<text text-anchor="middle" x="105" y="-520.5" font-family="Helvetica,sans-Serif" font-size="10.00">Cyg_Thread::counted_sleep</text>
</a>
</g>
</g>
<!-- Node29 -->
<g id="node14" class="node"><title>Node29</title>
<g id="a_node14"><a xlink:href="class_cyg___thread.html#a7e92402378d90c942fd050ac77610c05" xlink:title="Cyg_Thread::set_timer">
<polygon fill="white" stroke="black" points="298.5,-608.5 298.5,-627.5 413.5,-627.5 413.5,-608.5 298.5,-608.5"/>
<text text-anchor="middle" x="356" y="-615.5" font-family="Helvetica,sans-Serif" font-size="10.00">Cyg_Thread::set_timer</text>
</a>
</g>
</g>
<!-- Node28&#45;&gt;Node29 -->
<g id="edge13" class="edge"><title>Node28&#45;&gt;Node29</title>
<path fill="none" stroke="midnightblue" d="M119.992,-532.62C144.411,-548.933 196.896,-581.908 246,-599 259.357,-603.649 274.048,-607.196 288.2,-609.89"/>
<polygon fill="midnightblue" stroke="midnightblue" points="287.923,-613.395 298.382,-611.704 289.151,-606.504 287.923,-613.395"/>
</g>
<!-- Node31 -->
<g id="node16" class="node"><title>Node31</title>
<g id="a_node16"><a xlink:href="class_cyg___thread.html#acd6c558eb9fe78341e7b933b16dd9678" xlink:title="Cyg_Thread::clear_timer">
<polygon fill="white" stroke="black" points="554,-532.5 554,-551.5 676,-551.5 676,-532.5 554,-532.5"/>
<text text-anchor="middle" x="615" y="-539.5" font-family="Helvetica,sans-Serif" font-size="10.00">Cyg_Thread::clear_timer</text>
</a>
</g>
</g>
<!-- Node28&#45;&gt;Node31 -->
<g id="edge18" class="edge"><title>Node28&#45;&gt;Node31</title>
<path fill="none" stroke="midnightblue" d="M173.721,-525.533C270.122,-529.138 446.037,-535.718 543.787,-539.374"/>
<polygon fill="midnightblue" stroke="midnightblue" points="543.741,-542.875 553.864,-539.751 544.002,-535.879 543.741,-542.875"/>
</g>
<!-- Node32 -->
<g id="node17" class="node"><title>Node32</title>
<g id="a_node17"><a xlink:href="class_cyg___thread.html#a1325e6829eb67a7c584cee48d81cc371" xlink:title="Cyg_Thread::exit">
<polygon fill="white" stroke="black" points="311,-494.5 311,-513.5 401,-513.5 401,-494.5 311,-494.5"/>
<text text-anchor="middle" x="356" y="-501.5" font-family="Helvetica,sans-Serif" font-size="10.00">Cyg_Thread::exit</text>
</a>
</g>
</g>
<!-- Node28&#45;&gt;Node32 -->
<g id="edge20" class="edge"><title>Node28&#45;&gt;Node32</title>
<path fill="none" stroke="midnightblue" d="M173.711,-517.833C213.597,-514.79 263.379,-510.991 300.68,-508.145"/>
<polygon fill="midnightblue" stroke="midnightblue" points="301.146,-511.62 310.851,-507.369 300.613,-504.64 301.146,-511.62"/>
</g>
<!-- Node35 -->
<g id="node20" class="node"><title>Node35</title>
<g id="a_node20"><a xlink:href="class_cyg___thread.html#abac0be19a5144b40c5d8d84b185ba8a5" xlink:title="Cyg_Thread::sleep">
<polygon fill="white" stroke="black" points="307,-570.5 307,-589.5 405,-589.5 405,-570.5 307,-570.5"/>
<text text-anchor="middle" x="356" y="-577.5" font-family="Helvetica,sans-Serif" font-size="10.00">Cyg_Thread::sleep</text>
</a>
</g>
</g>
<!-- Node28&#45;&gt;Node35 -->
<g id="edge25" class="edge"><title>Node28&#45;&gt;Node35</title>
<path fill="none" stroke="midnightblue" d="M145.792,-532.544C173.792,-539.22 212.157,-548.286 246,-556 263.846,-560.068 283.363,-564.401 300.887,-568.251"/>
<polygon fill="midnightblue" stroke="midnightblue" points="300.43,-571.733 310.948,-570.455 301.929,-564.896 300.43,-571.733"/>
</g>
<!-- Node28&#45;&gt;Node11 -->
<g id="edge27" class="edge"><title>Node28&#45;&gt;Node11</title>
<path fill="none" stroke="midnightblue" d="M123.51,-513.443C149.434,-499.775 199.933,-474.978 246,-463 520.733,-391.565 862.215,-386.838 1005.14,-388.458"/>
<polygon fill="midnightblue" stroke="midnightblue" points="1005.45,-391.962 1015.49,-388.59 1005.54,-384.962 1005.45,-391.962"/>
</g>
<!-- Node34 -->
<g id="node19" class="node"><title>Node34</title>
<g id="a_node19"><a xlink:href="class_cyg___scheduler.html#a62f9df6230a2e9c13bb168597404de5c" xlink:title="Cyg_Scheduler::reschedule">
<polygon fill="white" stroke="black" points="547,-456.5 547,-475.5 683,-475.5 683,-456.5 547,-456.5"/>
<text text-anchor="middle" x="615" y="-463.5" font-family="Helvetica,sans-Serif" font-size="10.00">Cyg_Scheduler::reschedule</text>
</a>
</g>
</g>
<!-- Node28&#45;&gt;Node34 -->
<g id="edge28" class="edge"><title>Node28&#45;&gt;Node34</title>
<path fill="none" stroke="midnightblue" d="M134.036,-513.487C162.028,-504.443 206.457,-491.313 246,-485 345.404,-469.13 461.638,-465.591 536.459,-465.22"/>
<polygon fill="midnightblue" stroke="midnightblue" points="536.747,-468.719 546.736,-465.188 536.725,-461.719 536.747,-468.719"/>
</g>
<!-- Node30 -->
<g id="node15" class="node"><title>Node30</title>
<g id="a_node15"><a xlink:href="class_cyg___alarm.html#a86a3cc0243666be0b078300ce12f8b67" xlink:title="Cyg_Alarm::initialize">
<polygon fill="white" stroke="black" points="796,-722.5 796,-741.5 902,-741.5 902,-722.5 796,-722.5"/>
<text text-anchor="middle" x="849" y="-729.5" font-family="Helvetica,sans-Serif" font-size="10.00">Cyg_Alarm::initialize</text>
</a>
</g>
</g>
<!-- Node29&#45;&gt;Node30 -->
<g id="edge14" class="edge"><title>Node29&#45;&gt;Node30</title>
<path fill="none" stroke="midnightblue" d="M380.225,-627.693C408.545,-639.192 458.074,-658.276 502,-670 599.785,-696.099 716.084,-714.403 785.87,-724.058"/>
<polygon fill="midnightblue" stroke="midnightblue" points="785.439,-727.532 795.822,-725.42 786.388,-720.596 785.439,-727.532"/>
</g>
<!-- Node30&#45;&gt;Node2 -->
<g id="edge15" class="edge"><title>Node30&#45;&gt;Node2</title>
<path fill="none" stroke="midnightblue" d="M902.002,-740.861C933.26,-746.188 973.341,-753.018 1006.84,-758.726"/>
<polygon fill="midnightblue" stroke="midnightblue" points="1006.56,-762.229 1017.01,-760.459 1007.74,-755.329 1006.56,-762.229"/>
</g>
<!-- Node30&#45;&gt;Node25 -->
<g id="edge16" class="edge"><title>Node30&#45;&gt;Node25</title>
<path fill="none" stroke="midnightblue" d="M891.298,-722.402C905.129,-718.612 920.466,-713.769 934,-708 977.209,-689.581 1023.63,-660.406 1050.4,-642.556"/>
<polygon fill="midnightblue" stroke="midnightblue" points="1052.68,-645.243 1059.01,-636.751 1048.76,-639.439 1052.68,-645.243"/>
</g>
<!-- Node30&#45;&gt;Node11 -->
<g id="edge17" class="edge"><title>Node30&#45;&gt;Node11</title>
<path fill="none" stroke="midnightblue" d="M902.387,-725.181C913.898,-721.601 925.247,-716.183 934,-708 968.506,-675.74 951.89,-651.627 970,-608 1001.1,-533.084 1044.13,-446.674 1063.22,-409.096"/>
<polygon fill="midnightblue" stroke="midnightblue" points="1066.51,-410.341 1067.93,-399.843 1060.27,-407.162 1066.51,-410.341"/>
</g>
<!-- Node31&#45;&gt;Node24 -->
<g id="edge19" class="edge"><title>Node31&#45;&gt;Node24</title>
<path fill="none" stroke="midnightblue" d="M674.244,-551.54C709.061,-557.243 753.198,-564.472 788.275,-570.217"/>
<polygon fill="midnightblue" stroke="midnightblue" points="787.945,-573.71 798.38,-571.873 789.077,-566.802 787.945,-573.71"/>
</g>
<!-- Node32&#45;&gt;Node31 -->
<g id="edge21" class="edge"><title>Node32&#45;&gt;Node31</title>
<path fill="none" stroke="midnightblue" d="M401.18,-510.532C440.273,-516.313 498.009,-524.85 543.484,-531.574"/>
<polygon fill="midnightblue" stroke="midnightblue" points="543.174,-535.066 553.579,-533.066 544.198,-528.141 543.174,-535.066"/>
</g>
<!-- Node33 -->
<g id="node18" class="node"><title>Node33</title>
<g id="a_node18"><a xlink:href="class_cyg___thread.html#a89831bfc815a07c0e12a0f59052ac902" xlink:title="Cyg_Thread::self">
<polygon fill="white" stroke="black" points="570.5,-494.5 570.5,-513.5 659.5,-513.5 659.5,-494.5 570.5,-494.5"/>
<text text-anchor="middle" x="615" y="-501.5" font-family="Helvetica,sans-Serif" font-size="10.00">Cyg_Thread::self</text>
</a>
</g>
</g>
<!-- Node32&#45;&gt;Node33 -->
<g id="edge22" class="edge"><title>Node32&#45;&gt;Node33</title>
<path fill="none" stroke="midnightblue" d="M401.18,-504C445.303,-504 513.172,-504 560.361,-504"/>
<polygon fill="midnightblue" stroke="midnightblue" points="560.397,-507.5 570.397,-504 560.397,-500.5 560.397,-507.5"/>
</g>
<!-- Node32&#45;&gt;Node34 -->
<g id="edge23" class="edge"><title>Node32&#45;&gt;Node34</title>
<path fill="none" stroke="midnightblue" d="M401.18,-497.468C439.206,-491.845 494.87,-483.615 539.733,-476.981"/>
<polygon fill="midnightblue" stroke="midnightblue" points="540.334,-480.43 549.714,-475.505 539.31,-473.506 540.334,-480.43"/>
</g>
<!-- Node34&#45;&gt;Node12 -->
<g id="edge24" class="edge"><title>Node34&#45;&gt;Node12</title>
<path fill="none" stroke="midnightblue" d="M683.166,-470.223C698.528,-473.105 714.341,-477.711 728,-485 748.524,-495.954 742.629,-513.808 764,-523 937.294,-597.539 1171.61,-513.963 1254.45,-479.484"/>
<polygon fill="midnightblue" stroke="midnightblue" points="1255.94,-482.654 1263.79,-475.537 1253.21,-476.207 1255.94,-482.654"/>
</g>
<!-- Node35&#45;&gt;Node11 -->
<g id="edge26" class="edge"><title>Node35&#45;&gt;Node11</title>
<path fill="none" stroke="midnightblue" d="M405.024,-581.774C424.845,-584.141 447.466,-589.055 466,-599 486.5,-610 480.629,-627.808 502,-637 590.529,-675.079 853.557,-652.068 934,-599 1006.28,-551.319 1050.1,-451.742 1066.09,-409.557"/>
<polygon fill="midnightblue" stroke="midnightblue" points="1069.47,-410.51 1069.63,-399.917 1062.9,-408.095 1069.47,-410.51"/>
</g>
<!-- Node38 -->
<g id="node21" class="node"><title>Node38</title>
<g id="a_node21"><a xlink:href="class_cyg___thread.html#a5bea2b207ab7788d560fa2bc98334b7d" xlink:title="Cyg_Thread::delay">
<polygon fill="#bfbfbf" stroke="black" points="56,-608.5 56,-627.5 154,-627.5 154,-608.5 56,-608.5"/>
<text text-anchor="middle" x="105" y="-615.5" font-family="Helvetica,sans-Serif" font-size="10.00">Cyg_Thread::delay</text>
</a>
</g>
</g>
<!-- Node38&#45;&gt;Node29 -->
<g id="edge29" class="edge"><title>Node38&#45;&gt;Node29</title>
<path fill="none" stroke="midnightblue" d="M154.01,-618C192.132,-618 245.877,-618 288.2,-618"/>
<polygon fill="midnightblue" stroke="midnightblue" points="288.42,-621.5 298.42,-618 288.42,-614.5 288.42,-621.5"/>
</g>
<!-- Node38&#45;&gt;Node32 -->
<g id="edge30" class="edge"><title>Node38&#45;&gt;Node32</title>
<path fill="none" stroke="midnightblue" d="M126.801,-608.477C170.834,-588.317 273.611,-541.262 324.848,-517.805"/>
<polygon fill="midnightblue" stroke="midnightblue" points="326.447,-520.922 334.083,-513.577 323.533,-514.557 326.447,-520.922"/>
</g>
<!-- Node38&#45;&gt;Node31 -->
<g id="edge31" class="edge"><title>Node38&#45;&gt;Node31</title>
<path fill="none" stroke="midnightblue" d="M154.072,-627.234C239.956,-642.654 415.493,-668.962 466,-637 497.583,-617.013 472.206,-583.567 502,-561 514.007,-551.905 528.819,-546.546 543.693,-543.503"/>
<polygon fill="midnightblue" stroke="midnightblue" points="544.698,-546.882 553.966,-541.749 543.52,-539.982 544.698,-546.882"/>
</g>
<!-- Node38&#45;&gt;Node35 -->
<g id="edge32" class="edge"><title>Node38&#45;&gt;Node35</title>
<path fill="none" stroke="midnightblue" d="M154.01,-610.673C194.699,-604.464 253.184,-595.538 296.583,-588.915"/>
<polygon fill="midnightblue" stroke="midnightblue" points="297.356,-592.338 306.714,-587.369 296.3,-585.418 297.356,-592.338"/>
</g>
<!-- Node38&#45;&gt;Node11 -->
<g id="edge33" class="edge"><title>Node38&#45;&gt;Node11</title>
<path fill="none" stroke="midnightblue" d="M154.041,-623.218C171.971,-626.083 192.27,-630.44 210,-637 227.372,-643.428 228.138,-653.096 246,-658 393.502,-698.496 806.45,-721.427 934,-637 1017.75,-581.568 1056.31,-457.521 1068.5,-409.504"/>
<polygon fill="midnightblue" stroke="midnightblue" points="1071.92,-410.279 1070.88,-399.735 1065.12,-408.623 1071.92,-410.279"/>
</g>
<!-- Node39 -->
<g id="node22" class="node"><title>Node39</title>
<g id="a_node22"><a xlink:href="class_cyg___thread.html#aa2ccfc563049b0f7e77ebbafb5df7eca" xlink:title="Cyg_Thread::kill">
<polygon fill="#bfbfbf" stroke="black" points="62,-342.5 62,-361.5 148,-361.5 148,-342.5 62,-342.5"/>
<text text-anchor="middle" x="105" y="-349.5" font-family="Helvetica,sans-Serif" font-size="10.00">Cyg_Thread::kill</text>
</a>
</g>
</g>
<!-- Node39&#45;&gt;Node32 -->
<g id="edge34" class="edge"><title>Node39&#45;&gt;Node32</title>
<path fill="none" stroke="midnightblue" d="M121.576,-361.508C163.673,-387.206 279.957,-458.191 330.742,-489.192"/>
<polygon fill="midnightblue" stroke="midnightblue" points="329.071,-492.272 339.43,-494.495 332.718,-486.298 329.071,-492.272"/>
</g>
<!-- Node39&#45;&gt;Node24 -->
<g id="edge35" class="edge"><title>Node39&#45;&gt;Node24</title>
<path fill="none" stroke="midnightblue" d="M148.335,-356.153C280.792,-369.464 681.288,-412.221 728,-447 757.979,-469.32 739.68,-494.619 764,-523 779.332,-540.892 801.56,-555.642 819.3,-565.652"/>
<polygon fill="midnightblue" stroke="midnightblue" points="817.65,-568.74 828.107,-570.446 820.997,-562.591 817.65,-568.74"/>
</g>
<!-- Node40 -->
<g id="node23" class="node"><title>Node40</title>
<g id="a_node23"><a xlink:href="class_cyg___thread.html#a6bec4a51156245d5a0079ae589d1d18c" xlink:title="Cyg_Thread::wake">
<polygon fill="white" stroke="black" points="800.5,-114.5 800.5,-133.5 897.5,-133.5 897.5,-114.5 800.5,-114.5"/>
<text text-anchor="middle" x="849" y="-121.5" font-family="Helvetica,sans-Serif" font-size="10.00">Cyg_Thread::wake</text>
</a>
</g>
</g>
<!-- Node39&#45;&gt;Node40 -->
<g id="edge36" class="edge"><title>Node39&#45;&gt;Node40</title>
<path fill="none" stroke="midnightblue" d="M122.498,-342.262C148.365,-327.172 200.245,-297.631 246,-276 357.027,-223.512 383.378,-203.793 502,-172 601.176,-145.419 720.51,-133.002 789.959,-127.641"/>
<polygon fill="midnightblue" stroke="midnightblue" points="790.54,-131.107 800.25,-126.87 790.017,-124.127 790.54,-131.107"/>
</g>
<!-- Node41 -->
<g id="node24" class="node"><title>Node41</title>
<g id="a_node24"><a xlink:href="class_cyg___thread.html#a57bf6bf843c58e1331698a7fb75c9988" xlink:title="Cyg_Thread::force_resume">
<polygon fill="white" stroke="black" points="289.5,-285.5 289.5,-304.5 422.5,-304.5 422.5,-285.5 289.5,-285.5"/>
<text text-anchor="middle" x="356" y="-292.5" font-family="Helvetica,sans-Serif" font-size="10.00">Cyg_Thread::force_resume</text>
</a>
</g>
</g>
<!-- Node39&#45;&gt;Node41 -->
<g id="edge38" class="edge"><title>Node39&#45;&gt;Node41</title>
<path fill="none" stroke="midnightblue" d="M147.677,-342.459C190.499,-332.657 257.245,-317.378 303.382,-306.816"/>
<polygon fill="midnightblue" stroke="midnightblue" points="304.22,-310.215 313.187,-304.572 302.658,-303.391 304.22,-310.215"/>
</g>
<!-- Node39&#45;&gt;Node11 -->
<g id="edge40" class="edge"><title>Node39&#45;&gt;Node11</title>
<path fill="none" stroke="midnightblue" d="M148.273,-352.16C270.257,-352.853 633.347,-356.527 934,-376 957.193,-377.502 982.498,-379.841 1005.08,-382.18"/>
<polygon fill="midnightblue" stroke="midnightblue" points="1004.94,-385.685 1015.25,-383.252 1005.68,-378.723 1004.94,-385.685"/>
</g>
<!-- Node40&#45;&gt;Node11 -->
<g id="edge37" class="edge"><title>Node40&#45;&gt;Node11</title>
<path fill="none" stroke="midnightblue" d="M897.852,-127.747C910.526,-130.544 923.569,-135.228 934,-143 1014.18,-202.74 1054.65,-323.272 1067.93,-370.443"/>
<polygon fill="midnightblue" stroke="midnightblue" points="1064.61,-371.57 1070.61,-380.304 1071.37,-369.736 1064.61,-371.57"/>
</g>
<!-- Node41&#45;&gt;Node11 -->
<g id="edge39" class="edge"><title>Node41&#45;&gt;Node11</title>
<path fill="none" stroke="midnightblue" d="M406.316,-285.445C507.843,-267.822 746.415,-237.021 934,-295 983.678,-310.355 1031.43,-350.242 1055.95,-373.153"/>
<polygon fill="midnightblue" stroke="midnightblue" points="1053.69,-375.838 1063.34,-380.212 1058.53,-370.775 1053.69,-375.838"/>
</g>
<!-- Node42 -->
<g id="node25" class="node"><title>Node42</title>
<g id="a_node25"><a xlink:href="class_cyg___thread.html#abdd74d18178c8e11cd8668e35d98ddf3" xlink:title="Cyg_Thread::reinitialize">
<polygon fill="#bfbfbf" stroke="black" points="556,-570.5 556,-589.5 674,-589.5 674,-570.5 556,-570.5"/>
<text text-anchor="middle" x="615" y="-577.5" font-family="Helvetica,sans-Serif" font-size="10.00">Cyg_Thread::reinitialize</text>
</a>
</g>
</g>
<!-- Node42&#45;&gt;Node24 -->
<g id="edge41" class="edge"><title>Node42&#45;&gt;Node24</title>
<path fill="none" stroke="midnightblue" d="M674.244,-580C709.061,-580 753.198,-580 788.275,-580"/>
<polygon fill="midnightblue" stroke="midnightblue" points="788.38,-583.5 798.38,-580 788.38,-576.5 788.38,-583.5"/>
</g>
<!-- Node48 -->
<g id="node26" class="node"><title>Node48</title>
<g id="a_node26"><a xlink:href="class_cyg___thread.html#ab102fd5044377146d5cd67337f2d3383" xlink:title="Cyg_Thread::set_priority">
<polygon fill="#bfbfbf" stroke="black" points="788,-152.5 788,-171.5 910,-171.5 910,-152.5 788,-152.5"/>
<text text-anchor="middle" x="849" y="-159.5" font-family="Helvetica,sans-Serif" font-size="10.00">Cyg_Thread::set_priority</text>
</a>
</g>
</g>
<!-- Node48&#45;&gt;Node11 -->
<g id="edge42" class="edge"><title>Node48&#45;&gt;Node11</title>
<path fill="none" stroke="midnightblue" d="M904.523,-171.608C914.922,-175.041 925.27,-179.695 934,-186 1002.72,-235.628 1048.22,-330.339 1065.37,-370.848"/>
<polygon fill="midnightblue" stroke="midnightblue" points="1062.14,-372.22 1069.19,-380.13 1068.62,-369.551 1062.14,-372.22"/>
</g>
<!-- Node51 -->
<g id="node27" class="node"><title>Node51</title>
<g id="a_node27"><a xlink:href="class_cyg___thread.html#a4912b6ba316818edc0f1c36a9b51e201" xlink:title="Cyg_Thread::counted_wake">
<polygon fill="#bfbfbf" stroke="black" points="546.5,-228.5 546.5,-247.5 683.5,-247.5 683.5,-228.5 546.5,-228.5"/>
<text text-anchor="middle" x="615" y="-235.5" font-family="Helvetica,sans-Serif" font-size="10.00">Cyg_Thread::counted_wake</text>
</a>
</g>
</g>
<!-- Node51&#45;&gt;Node40 -->
<g id="edge43" class="edge"><title>Node51&#45;&gt;Node40</title>
<path fill="none" stroke="midnightblue" d="M683.789,-230.537C699.468,-226.356 715.267,-219.91 728,-210 754.677,-189.238 737.091,-163.46 764,-143 771.773,-137.089 781.048,-132.958 790.552,-130.083"/>
<polygon fill="midnightblue" stroke="midnightblue" points="791.677,-133.407 800.485,-127.519 789.928,-126.629 791.677,-133.407"/>
</g>
<!-- Node51&#45;&gt;Node11 -->
<g id="edge44" class="edge"><title>Node51&#45;&gt;Node11</title>
<path fill="none" stroke="midnightblue" d="M683.591,-230.62C750.141,-226.164 853.257,-226.928 934,-262 990.173,-286.399 1038.34,-343.283 1060.3,-372.297"/>
<polygon fill="midnightblue" stroke="midnightblue" points="1057.49,-374.386 1066.26,-380.34 1063.12,-370.221 1057.49,-374.386"/>
</g>
<!-- Node52 -->
<g id="node28" class="node"><title>Node52</title>
<g id="a_node28"><a xlink:href="class_cyg___thread.html#a78079e3efa67760bc216a5d103bbfe0a" xlink:title="Cyg_Thread::release">
<polygon fill="#bfbfbf" stroke="black" points="562,-181.5 562,-200.5 668,-200.5 668,-181.5 562,-181.5"/>
<text text-anchor="middle" x="615" y="-188.5" font-family="Helvetica,sans-Serif" font-size="10.00">Cyg_Thread::release</text>
</a>
</g>
</g>
<!-- Node52&#45;&gt;Node40 -->
<g id="edge45" class="edge"><title>Node52&#45;&gt;Node40</title>
<path fill="none" stroke="midnightblue" d="M642.784,-181.497C672.26,-171.232 721.152,-154.768 764,-143 773.203,-140.473 783.038,-138.024 792.619,-135.773"/>
<polygon fill="midnightblue" stroke="midnightblue" points="793.514,-139.158 802.474,-133.503 791.943,-132.337 793.514,-139.158"/>
</g>
<!-- Node52&#45;&gt;Node11 -->
<g id="edge46" class="edge"><title>Node52&#45;&gt;Node11</title>
<path fill="none" stroke="midnightblue" d="M668.138,-185.406C734.095,-180.767 849.282,-180.957 934,-226 997.587,-259.808 1044.29,-335.821 1063.43,-371.21"/>
<polygon fill="midnightblue" stroke="midnightblue" points="1060.53,-373.207 1068.28,-380.423 1066.72,-369.944 1060.53,-373.207"/>
</g>
<!-- Node53 -->
<g id="node29" class="node"><title>Node53</title>
<g id="a_node29"><a xlink:href="class_cyg___thread.html#a0e2432ce82cee0d332f4218a3ee0cae0" xlink:title="Cyg_Thread::cancel_counted_wake">
<polygon fill="#bfbfbf" stroke="black" points="764,-38.5 764,-57.5 934,-57.5 934,-38.5 764,-38.5"/>
<text text-anchor="middle" x="849" y="-45.5" font-family="Helvetica,sans-Serif" font-size="10.00">Cyg_Thread::cancel_counted_wake</text>
</a>
</g>
</g>
<!-- Node53&#45;&gt;Node11 -->
<g id="edge47" class="edge"><title>Node53&#45;&gt;Node11</title>
<path fill="none" stroke="midnightblue" d="M908.977,-57.63C918.067,-61.0627 926.807,-65.7102 934,-72 1028.84,-154.93 1061.48,-314.535 1070.26,-370.238"/>
<polygon fill="midnightblue" stroke="midnightblue" points="1066.81,-370.837 1071.75,-380.212 1073.74,-369.805 1066.81,-370.837"/>
</g>
<!-- Node54 -->
<g id="node30" class="node"><title>Node54</title>
<g id="a_node30"><a xlink:href="class_cyg___thread.html#ad3943c165934a8db1ac52d65efd05e0b" xlink:title="Cyg_Thread::suspend">
<polygon fill="#bfbfbf" stroke="black" points="793.5,-0.5 793.5,-19.5 904.5,-19.5 904.5,-0.5 793.5,-0.5"/>
<text text-anchor="middle" x="849" y="-7.5" font-family="Helvetica,sans-Serif" font-size="10.00">Cyg_Thread::suspend</text>
</a>
</g>
</g>
<!-- Node54&#45;&gt;Node11 -->
<g id="edge48" class="edge"><title>Node54&#45;&gt;Node11</title>
<path fill="none" stroke="midnightblue" d="M904.746,-14.3034C915.365,-17.2497 925.743,-21.8618 934,-29 1041.87,-122.252 1066.42,-309.135 1071.66,-370.199"/>
<polygon fill="midnightblue" stroke="midnightblue" points="1068.19,-370.679 1072.45,-380.379 1075.17,-370.138 1068.19,-370.679"/>
</g>
<!-- Node55 -->
<g id="node31" class="node"><title>Node55</title>
<g id="a_node31"><a xlink:href="class_cyg___scheduler.html#a2dfdb7b0a2485dc61e7b6cd92c193f7d" xlink:title="Cyg_Scheduler::thread_entry">
<polygon fill="#bfbfbf" stroke="black" points="777.5,-494.5 777.5,-513.5 920.5,-513.5 920.5,-494.5 777.5,-494.5"/>
<text text-anchor="middle" x="849" y="-501.5" font-family="Helvetica,sans-Serif" font-size="10.00">Cyg_Scheduler::thread_entry</text>
</a>
</g>
</g>
<!-- Node55&#45;&gt;Node11 -->
<g id="edge49" class="edge"><title>Node55&#45;&gt;Node11</title>
<path fill="none" stroke="midnightblue" d="M906.072,-494.42C915.592,-491.922 925.228,-488.823 934,-485 980.945,-464.541 1028.74,-427.592 1054.23,-406.305"/>
<polygon fill="midnightblue" stroke="midnightblue" points="1056.62,-408.867 1061.98,-399.732 1052.09,-403.526 1056.62,-408.867"/>
</g>
<!-- Node58 -->
<g id="node32" class="node"><title>Node58</title>
<g id="a_node32"><a xlink:href="class_cyg___scheduler.html#a3e083d831d4fb9542d511099949890bc" xlink:title="Cyg_Scheduler::start">
<polygon fill="#bfbfbf" stroke="black" points="51,-646.5 51,-665.5 159,-665.5 159,-646.5 51,-646.5"/>
<text text-anchor="middle" x="105" y="-653.5" font-family="Helvetica,sans-Serif" font-size="10.00">Cyg_Scheduler::start</text>
</a>
</g>
</g>
<!-- Node60 -->
<g id="node33" class="node"><title>Node60</title>
<g id="a_node33"><a xlink:href="class_cyg___d_node.html#a0afa93f81046787356c4f7e67f258cdf" xlink:title="Cyg_DNode::~Cyg_DNode">
<polygon fill="#bfbfbf" stroke="black" points="39,-684.5 39,-703.5 171,-703.5 171,-684.5 39,-684.5"/>
<text text-anchor="middle" x="105" y="-691.5" font-family="Helvetica,sans-Serif" font-size="10.00">Cyg_DNode::~Cyg_DNode</text>
</a>
</g>
</g>
<!-- Node62 -->
<g id="node34" class="node"><title>Node62</title>
<g id="a_node34"><a xlink:href="class_cyg___clock.html#ad6ff002aea2981b88e6199a0679cc93d" xlink:title="Cyg_Clock::get_clock_to_other_converter">
<polygon fill="#bfbfbf" stroke="black" points="6.5,-722.5 6.5,-741.5 203.5,-741.5 203.5,-722.5 6.5,-722.5"/>
<text text-anchor="middle" x="105" y="-729.5" font-family="Helvetica,sans-Serif" font-size="10.00">Cyg_Clock::get_clock_to_other_converter</text>
</a>
</g>
</g>
<!-- Node64 -->
<g id="node35" class="node"><title>Node64</title>
<g id="a_node35"><a xlink:href="class_cyg___clock.html#aff333d29c31f4d22ebf93e28cce5ebcd" xlink:title="Cyg_Clock::get_other_to_clock_converter">
<polygon fill="#bfbfbf" stroke="black" points="6.5,-760.5 6.5,-779.5 203.5,-779.5 203.5,-760.5 6.5,-760.5"/>
<text text-anchor="middle" x="105" y="-767.5" font-family="Helvetica,sans-Serif" font-size="10.00">Cyg_Clock::get_other_to_clock_converter</text>
</a>
</g>
</g>
<!-- Node65 -->
<g id="node36" class="node"><title>Node65</title>
<g id="a_node36"><a xlink:href="class_cyg___interrupt.html#a9ee616fc7223581ee6dc61b6333a8507" xlink:title="Cyg_Interrupt::~Cyg_Interrupt">
<polygon fill="#bfbfbf" stroke="black" points="33,-798.5 33,-817.5 177,-817.5 177,-798.5 33,-798.5"/>
<text text-anchor="middle" x="105" y="-805.5" font-family="Helvetica,sans-Serif" font-size="10.00">Cyg_Interrupt::~Cyg_Interrupt</text>
</a>
</g>
</g>
<!-- Node67 -->
<g id="node37" class="node"><title>Node67</title>
<g id="a_node37"><a xlink:href="class_cyg___thread_timer.html#ab355d2d23288714dcddad7dea458d991" xlink:title="Cyg_ThreadTimer::alarm">
<polygon fill="#bfbfbf" stroke="black" points="554,-81.5 554,-100.5 676,-100.5 676,-81.5 554,-81.5"/>
<text text-anchor="middle" x="615" y="-88.5" font-family="Helvetica,sans-Serif" font-size="10.00">Cyg_ThreadTimer::alarm</text>
</a>
</g>
</g>
<!-- Node67&#45;&gt;Node40 -->
<g id="edge50" class="edge"><title>Node67&#45;&gt;Node40</title>
<path fill="none" stroke="midnightblue" d="M676.047,-99.5412C711.24,-104.547 755.468,-110.838 790.255,-115.786"/>
<polygon fill="midnightblue" stroke="midnightblue" points="789.87,-119.267 800.263,-117.21 790.856,-112.336 789.87,-119.267"/>
</g>
<!-- Node67&#45;&gt;Node11 -->
<g id="edge51" class="edge"><title>Node67&#45;&gt;Node11</title>
<path fill="none" stroke="midnightblue" d="M676.136,-86.534C756.357,-81.7628 893.047,-78.1392 934,-105 1029.84,-167.858 1061.73,-316.969 1070.29,-370.47"/>
<polygon fill="midnightblue" stroke="midnightblue" points="1066.83,-371.002 1071.78,-380.37 1073.76,-369.961 1066.83,-371.002"/>
</g>
<!-- Node70 -->
<g id="node38" class="node"><title>Node70</title>
<g id="a_node38"><a xlink:href="thread_8cxx.html#ab41818e0f3d9ad7695412191d8d01f2d" xlink:title="nocalss::idle_thread_main">
<polygon fill="#bfbfbf" stroke="black" points="550,-760.5 550,-779.5 680,-779.5 680,-760.5 550,-760.5"/>
<text text-anchor="middle" x="615" y="-767.5" font-family="Helvetica,sans-Serif" font-size="10.00">nocalss::idle_thread_main</text>
</a>
</g>
</g>
<!-- Node71 -->
<g id="node39" class="node"><title>Node71</title>
<g id="a_node39"><a xlink:href="class_cyg___counter.html#a94149bfbd4ec7069dc703c5a158b4f9f" xlink:title="Cyg_Counter::tick">
<polygon fill="white" stroke="black" points="801.5,-760.5 801.5,-779.5 896.5,-779.5 896.5,-760.5 801.5,-760.5"/>
<text text-anchor="middle" x="849" y="-767.5" font-family="Helvetica,sans-Serif" font-size="10.00">Cyg_Counter::tick</text>
</a>
</g>
</g>
<!-- Node70&#45;&gt;Node71 -->
<g id="edge52" class="edge"><title>Node70&#45;&gt;Node71</title>
<path fill="none" stroke="midnightblue" d="M680.009,-770C714.894,-770 757.687,-770 791.352,-770"/>
<polygon fill="midnightblue" stroke="midnightblue" points="791.488,-773.5 801.488,-770 791.488,-766.5 791.488,-773.5"/>
</g>
<!-- Node71&#45;&gt;Node2 -->
<g id="edge53" class="edge"><title>Node71&#45;&gt;Node2</title>
<path fill="none" stroke="midnightblue" d="M896.748,-770C927.073,-770 967.176,-770 1001.47,-770"/>
<polygon fill="midnightblue" stroke="midnightblue" points="1001.91,-773.5 1011.91,-770 1001.91,-766.5 1001.91,-773.5"/>
</g>
<!-- Node71&#45;&gt;Node11 -->
<g id="edge54" class="edge"><title>Node71&#45;&gt;Node11</title>
<path fill="none" stroke="midnightblue" d="M896.695,-768.514C910.243,-765.876 924.049,-760.713 934,-751 980.9,-705.221 947.896,-669.699 970,-608 997.357,-531.638 1042.32,-445.971 1062.55,-408.84"/>
<polygon fill="midnightblue" stroke="midnightblue" points="1065.83,-410.152 1067.57,-399.702 1059.69,-406.783 1065.83,-410.152"/>
</g>
<!-- Node75 -->
<g id="node40" class="node"><title>Node75</title>
<g id="a_node40"><a xlink:href="intr_8hxx.html#a1f5b0eacdeda63eccc5cc7be9372d61f" xlink:title="nocalss::interrupt_end">
<polygon fill="#bfbfbf" stroke="black" points="792.5,-456.5 792.5,-475.5 905.5,-475.5 905.5,-456.5 792.5,-456.5"/>
<text text-anchor="middle" x="849" y="-463.5" font-family="Helvetica,sans-Serif" font-size="10.00">nocalss::interrupt_end</text>
</a>
</g>
</g>
<!-- Node75&#45;&gt;Node11 -->
<g id="edge55" class="edge"><title>Node75&#45;&gt;Node11</title>
<path fill="none" stroke="midnightblue" d="M898.785,-456.411C910.425,-453.727 922.736,-450.556 934,-447 972.713,-434.778 1015.73,-416.347 1043.51,-403.775"/>
<polygon fill="midnightblue" stroke="midnightblue" points="1045.03,-406.931 1052.67,-399.593 1042.12,-400.563 1045.03,-406.931"/>
</g>
<!-- Node77 -->
<g id="node41" class="node"><title>Node77</title>
<g id="a_node41"><a xlink:href="intr_8hxx.html#a56770ec1e5d70e47172fbbfe92f86fee" xlink:title="nocalss::cyg_interrupt_call_pending_DSRs">
<polygon fill="#bfbfbf" stroke="black" points="3.5,-836.5 3.5,-855.5 206.5,-855.5 206.5,-836.5 3.5,-836.5"/>
<text text-anchor="middle" x="105" y="-843.5" font-family="Helvetica,sans-Serif" font-size="10.00">nocalss::cyg_interrupt_call_pending_DSRs</text>
</a>
</g>
</g>
<!-- Node79 -->
<g id="node42" class="node"><title>Node79</title>
<g id="a_node42"><a xlink:href="intr_8hxx.html#ab2b3c06da9a1cad64bc1debe231c3ed2" xlink:title="nocalss::cyg_interrupt_post_dsr">
<polygon fill="#bfbfbf" stroke="black" points="27.5,-874.5 27.5,-893.5 182.5,-893.5 182.5,-874.5 27.5,-874.5"/>
<text text-anchor="middle" x="105" y="-881.5" font-family="Helvetica,sans-Serif" font-size="10.00">nocalss::cyg_interrupt_post_dsr</text>
</a>
</g>
</g>
<!-- Node80 -->
<g id="node43" class="node"><title>Node80</title>
<g id="a_node43"><a xlink:href="class_cyg___hardware_thread.html#a4c8a0608f9cdcd1f3991c0cce39abcc8" xlink:title="Cyg_HardwareThread::Cyg_HardwareThread">
<polygon fill="#bfbfbf" stroke="black" points="1.5,-912.5 1.5,-931.5 208.5,-931.5 208.5,-912.5 1.5,-912.5"/>
<text text-anchor="middle" x="105" y="-919.5" font-family="Helvetica,sans-Serif" font-size="10.00">Cyg_HardwareThread::Cyg_HardwareThread</text>
</a>
</g>
</g>
<!-- Node82 -->
<g id="node44" class="node"><title>Node82</title>
<g id="a_node44"><a xlink:href="class_cyg___spin_lock.html#a9047ed52f15cd11a5d5c37aa897bc43c" xlink:title="Cyg_SpinLock::spin_intsave">
<polygon fill="#bfbfbf" stroke="black" points="35.5,-950.5 35.5,-969.5 174.5,-969.5 174.5,-950.5 35.5,-950.5"/>
<text text-anchor="middle" x="105" y="-957.5" font-family="Helvetica,sans-Serif" font-size="10.00">Cyg_SpinLock::spin_intsave</text>
</a>
</g>
</g>
<!-- Node84 -->
<g id="node45" class="node"><title>Node84</title>
<g id="a_node45"><a xlink:href="class_cyg___spin_lock.html#a88c085c301eaf4463fc8d2077ef7b3a6" xlink:title="Cyg_SpinLock::clear_intsave">
<polygon fill="#bfbfbf" stroke="black" points="34,-988.5 34,-1007.5 176,-1007.5 176,-988.5 34,-988.5"/>
<text text-anchor="middle" x="105" y="-995.5" font-family="Helvetica,sans-Serif" font-size="10.00">Cyg_SpinLock::clear_intsave</text>
</a>
</g>
</g>
<!-- Node86 -->
<g id="node46" class="node"><title>Node86</title>
<g id="a_node46"><a xlink:href="class_cyg___scheduler___implementation.html#a7009d81e50e2bcd9a9b29ccbaf80f61b" xlink:title="Cyg_Scheduler_Implementation::timeslice">
<polygon fill="#bfbfbf" stroke="black" points="5.5,-1026.5 5.5,-1045.5 204.5,-1045.5 204.5,-1026.5 5.5,-1026.5"/>
<text text-anchor="middle" x="105" y="-1033.5" font-family="Helvetica,sans-Serif" font-size="10.00">Cyg_Scheduler_Implementation::timeslice</text>
</a>
</g>
</g>
<!-- Node87 -->
<g id="node47" class="node"><title>Node87</title>
<g id="a_node47"><a xlink:href="class_cyg___scheduler___implementation.html#ab5c12e3e669b0107ad145c2b9c3c6bbd" xlink:title="Cyg_Scheduler_Implementation::timeslice_cpu">
<polygon fill="white" stroke="black" points="246,-1026.5 246,-1045.5 466,-1045.5 466,-1026.5 246,-1026.5"/>
<text text-anchor="middle" x="356" y="-1033.5" font-family="Helvetica,sans-Serif" font-size="10.00">Cyg_Scheduler_Implementation::timeslice_cpu</text>
</a>
</g>
</g>
<!-- Node86&#45;&gt;Node87 -->
<g id="edge56" class="edge"><title>Node86&#45;&gt;Node87</title>
<path fill="none" stroke="midnightblue" d="M204.769,-1036C214.851,-1036 225.168,-1036 235.44,-1036"/>
<polygon fill="midnightblue" stroke="midnightblue" points="235.687,-1039.5 245.687,-1036 235.687,-1032.5 235.687,-1039.5"/>
</g>
<!-- Node90 -->
<g id="node48" class="node"><title>Node90</title>
<g id="a_node48"><a xlink:href="class_cyg___scheduler___implementation.html#ad6a05d4eeef2a3f196c57aaad0de70d1" xlink:title="Cyg_Scheduler_Implementation::add_thread">
<polygon fill="#bfbfbf" stroke="black" points="970,-703.5 970,-722.5 1178,-722.5 1178,-703.5 970,-703.5"/>
<text text-anchor="middle" x="1074" y="-710.5" font-family="Helvetica,sans-Serif" font-size="10.00">Cyg_Scheduler_Implementation::add_thread</text>
</a>
</g>
</g>
<!-- Node90&#45;&gt;Node9 -->
<g id="edge57" class="edge"><title>Node90&#45;&gt;Node9</title>
<path fill="none" stroke="midnightblue" d="M1178.15,-722.333C1194.34,-723.797 1210.58,-725.266 1225.34,-726.602"/>
<polygon fill="midnightblue" stroke="midnightblue" points="1225.02,-730.088 1235.3,-727.503 1225.66,-723.116 1225.02,-730.088"/>
</g>
<!-- Node91 -->
<g id="node49" class="node"><title>Node91</title>
<g id="a_node49"><a xlink:href="class_cyg___sched_thread.html#aad25cbc77cdd7f04cde9171951535b99" xlink:title="Cyg_SchedThread::remove">
<polygon fill="white" stroke="black" points="1219.5,-684.5 1219.5,-703.5 1352.5,-703.5 1352.5,-684.5 1219.5,-684.5"/>
<text text-anchor="middle" x="1286" y="-691.5" font-family="Helvetica,sans-Serif" font-size="10.00">Cyg_SchedThread::remove</text>
</a>
</g>
</g>
<!-- Node90&#45;&gt;Node91 -->
<g id="edge58" class="edge"><title>Node90&#45;&gt;Node91</title>
<path fill="none" stroke="midnightblue" d="M1178.15,-703.667C1188.66,-702.717 1199.18,-701.764 1209.31,-700.848"/>
<polygon fill="midnightblue" stroke="midnightblue" points="1209.65,-704.331 1219.3,-699.944 1209.02,-697.36 1209.65,-704.331"/>
</g>
<!-- Node93 -->
<g id="node50" class="node"><title>Node93</title>
<g id="a_node50"><a xlink:href="class_cyg___scheduler___implementation.html#a4f18a0e7842447eeb2fd9a3b947bc8ff" xlink:title="Cyg_Scheduler_Implementation::rem_thread">
<polygon fill="#bfbfbf" stroke="black" points="0.5,-1064.5 0.5,-1083.5 209.5,-1083.5 209.5,-1064.5 0.5,-1064.5"/>
<text text-anchor="middle" x="105" y="-1071.5" font-family="Helvetica,sans-Serif" font-size="10.00">Cyg_Scheduler_Implementation::rem_thread</text>
</a>
</g>
</g>
<!-- Node94 -->
<g id="node51" class="node"><title>Node94</title>
<g id="a_node51"><a xlink:href="class_cyg___scheduler___implementation.html#a57c86e3c784018ba3f91d3c26a5d4c7f" xlink:title="Cyg_Scheduler_Implementation::schedule">
<polygon fill="#bfbfbf" stroke="black" points="5.5,-1102.5 5.5,-1121.5 204.5,-1121.5 204.5,-1102.5 5.5,-1102.5"/>
<text text-anchor="middle" x="105" y="-1109.5" font-family="Helvetica,sans-Serif" font-size="10.00">Cyg_Scheduler_Implementation::schedule</text>
</a>
</g>
</g>
<!-- Node95 -->
<g id="node52" class="node"><title>Node95</title>
<g id="a_node52"><a xlink:href="class_cyg___scheduler___implementation.html#a479836186b44e4d1bfa4342dbc79c641" xlink:title="Cyg_Scheduler_Implementation::set_idle_thread">
<polygon fill="#bfbfbf" stroke="black" points="502,-304.5 502,-323.5 728,-323.5 728,-304.5 502,-304.5"/>
<text text-anchor="middle" x="615" y="-311.5" font-family="Helvetica,sans-Serif" font-size="10.00">Cyg_Scheduler_Implementation::set_idle_thread</text>
</a>
</g>
</g>
<!-- Node96 -->
<g id="node53" class="node"><title>Node96</title>
<g id="a_node53"><a xlink:href="class_cyg___thread.html#aae0100385a3513f48a6c013a11e807f7" xlink:title="Cyg_Thread::resume">
<polygon fill="white" stroke="black" points="795.5,-304.5 795.5,-323.5 902.5,-323.5 902.5,-304.5 795.5,-304.5"/>
<text text-anchor="middle" x="849" y="-311.5" font-family="Helvetica,sans-Serif" font-size="10.00">Cyg_Thread::resume</text>
</a>
</g>
</g>
<!-- Node95&#45;&gt;Node96 -->
<g id="edge59" class="edge"><title>Node95&#45;&gt;Node96</title>
<path fill="none" stroke="midnightblue" d="M728.262,-314C747.89,-314 767.66,-314 785.322,-314"/>
<polygon fill="midnightblue" stroke="midnightblue" points="785.46,-317.5 795.46,-314 785.46,-310.5 785.46,-317.5"/>
</g>
<!-- Node96&#45;&gt;Node11 -->
<g id="edge60" class="edge"><title>Node96&#45;&gt;Node11</title>
<path fill="none" stroke="midnightblue" d="M885.75,-323.537C900.739,-327.71 918.298,-332.829 934,-338 970.558,-350.04 1011.78,-365.735 1039.78,-376.72"/>
<polygon fill="midnightblue" stroke="midnightblue" points="1038.51,-379.983 1049.1,-380.395 1041.08,-373.471 1038.51,-379.983"/>
</g>
<!-- Node97 -->
<g id="node54" class="node"><title>Node97</title>
<g id="a_node54"><a xlink:href="class_cyg___c_list.html#a4886b12f3cfb3941409852db84866751" xlink:title="Cyg_CList::~Cyg_CList">
<polygon fill="#bfbfbf" stroke="black" points="45.5,-1140.5 45.5,-1159.5 164.5,-1159.5 164.5,-1140.5 45.5,-1140.5"/>
<text text-anchor="middle" x="105" y="-1147.5" font-family="Helvetica,sans-Serif" font-size="10.00">Cyg_CList::~Cyg_CList</text>
</a>
</g>
</g>
<!-- Node99 -->
<g id="node55" class="node"><title>Node99</title>
<g id="a_node55"><a xlink:href="class_cyg___c_list.html#ab8bc619183c03fa4e9d8a4e0f1edf471" xlink:title="Cyg_CList::add_head">
<polygon fill="#bfbfbf" stroke="black" points="50,-1178.5 50,-1197.5 160,-1197.5 160,-1178.5 50,-1178.5"/>
<text text-anchor="middle" x="105" y="-1185.5" font-family="Helvetica,sans-Serif" font-size="10.00">Cyg_CList::add_head</text>
</a>
</g>
</g>
</g>
</svg>
